<svg width="100" height="67" viewBox="0 0 100 67" fill="none" xmlns="http://www.w3.org/2000/svg">
<path d="M63.2417 11.1111H36.7528C31.7917 11.1111 27.775 15.1278 27.775 20.0889V46.5833C27.775 51.5389 31.7917 55.5555 36.7528 55.5555H63.2472C68.2028 55.5555 72.225 51.5389 72.225 46.5778V20.0889C72.2194 15.1278 68.2028 11.1111 63.2417 11.1111Z" fill="url(#paint0_linear_474_2327)"/>
<path d="M49.8083 21.3221L50.7083 19.7666C51.2639 18.7944 52.5028 18.4666 53.475 19.0221C54.4472 19.5777 54.775 20.8166 54.2195 21.7888L45.5472 36.7999H51.8195C53.8528 36.7999 54.9917 39.1888 54.1083 40.8444H35.7195C34.5972 40.8444 33.6972 39.9444 33.6972 38.8221C33.6972 37.6999 34.5972 36.7999 35.7195 36.7999H40.875L47.475 25.361L45.4139 21.7833C44.8583 20.811 45.1861 19.5833 46.1583 19.0166C47.1306 18.461 48.3583 18.7888 48.925 19.761L49.8083 21.3221ZM42.0083 42.9277L40.0639 46.2999C39.5083 47.2721 38.2695 47.5999 37.2972 47.0444C36.325 46.4888 35.9972 45.2499 36.5528 44.2777L37.9972 41.7777C39.6306 41.2721 40.9583 41.661 42.0083 42.9277ZM58.7528 36.811H64.0139C65.1361 36.811 66.0361 37.711 66.0361 38.8333C66.0361 39.9555 65.1361 40.8555 64.0139 40.8555H61.0917L63.0639 44.2777C63.6195 45.2499 63.2917 46.4777 62.3195 47.0444C61.3472 47.5999 60.1195 47.2721 59.5528 46.2999C56.2306 40.5388 53.7361 36.2277 52.0806 33.3555C50.3861 30.4333 51.5972 27.4999 52.7917 26.5055C54.1195 28.7833 56.1028 32.2221 58.7528 36.811Z" fill="white"/>
<defs>
<linearGradient id="paint0_linear_474_2327" x1="49.9972" y1="11.1111" x2="49.9972" y2="55.5555" gradientUnits="userSpaceOnUse">
<stop stop-color="#0ED4FC"/>
<stop offset="1" stop-color="#0C57EF"/>
</linearGradient>
</defs>
</svg>
