<svg width="64" height="64" viewBox="0 0 64 64" fill="none" xmlns="http://www.w3.org/2000/svg">
<path d="M61 50H3C2.73478 50 2.48043 49.8946 2.29289 49.7071C2.10536 49.5196 2 49.2652 2 49V5C2 4.73478 2.10536 4.48043 2.29289 4.29289C2.48043 4.10536 2.73478 4 3 4H61C61.2652 4 61.5196 4.10536 61.7071 4.29289C61.8946 4.48043 62 4.73478 62 5V49C62 49.2652 61.8946 49.5196 61.7071 49.7071C61.5196 49.8946 61.2652 50 61 50Z" fill="#FEBC00"/>
<path d="M25.583 48L19.816 53.675C19.678 53.8101 19.5799 53.9806 19.5325 54.1677C19.485 54.3549 19.49 54.5515 19.547 54.736C19.6052 54.9214 19.7125 55.0876 19.8576 55.2168C20.0027 55.346 20.1801 55.4335 20.371 55.47L23.471 56.07L24.105 59.147C24.1447 59.3365 24.2352 59.5116 24.3668 59.6536C24.4983 59.7955 24.6661 59.8991 24.852 59.953C25.0385 60.009 25.2366 60.0139 25.4257 59.9673C25.6148 59.9207 25.7879 59.8242 25.927 59.688L32.5 53.218C31.022 52.9424 29.6281 52.3278 28.4279 51.4224C27.2277 50.5169 26.2539 49.3455 25.583 48Z" fill="#F74E0C"/>
<path d="M38.417 48L44.184 53.675C44.322 53.8101 44.4201 53.9806 44.4675 54.1677C44.515 54.3549 44.5099 54.5515 44.453 54.736C44.3948 54.9214 44.2875 55.0876 44.1424 55.2168C43.9973 55.346 43.8199 55.4335 43.629 55.47L40.529 56.07L39.9 59.148C39.8603 59.3375 39.7698 59.5126 39.6382 59.6546C39.5067 59.7965 39.3389 59.9001 39.153 59.954C38.9665 60.01 38.7684 60.0149 38.5793 59.9683C38.3902 59.9217 38.2171 59.8252 38.078 59.689L31.5 53.218C32.978 52.9424 34.3719 52.3278 35.5721 51.4224C36.7723 50.5169 37.7461 49.3455 38.417 48Z" fill="#F74E0C"/>
<path d="M57 46H7C6.73478 46 6.48043 45.8946 6.29289 45.7071C6.10536 45.5196 6 45.2652 6 45V9C6 8.73478 6.10536 8.48043 6.29289 8.29289C6.48043 8.10536 6.73478 8 7 8H57C57.2652 8 57.5196 8.10536 57.7071 8.29289C57.8946 8.48043 58 8.73478 58 9V45C58 45.2652 57.8946 45.5196 57.7071 45.7071C57.5196 45.8946 57.2652 46 57 46Z" fill="#FDFEFF"/>
<path d="M21.051 46C21.1779 47.3957 21.5728 48.7538 22.214 50H41.786C42.4272 48.7538 42.8221 47.3957 42.949 46H21.051Z" fill="#EDAA03"/>
<path d="M43 45C43 42.0826 41.8411 39.2847 39.7782 37.2218C37.7153 35.1589 34.9174 34 32 34C29.0826 34 26.2847 35.1589 24.2218 37.2218C22.1589 39.2847 21 42.0826 21 45C21 45.338 21.021 45.67 21.051 46H42.951C42.979 45.67 43 45.338 43 45Z" fill="#DFEAEF"/>
<path d="M8 45V9C8 8.73478 8.10536 8.48043 8.29289 8.29289C8.48043 8.10536 8.73478 8 9 8H7C6.73478 8 6.48043 8.10536 6.29289 8.29289C6.10536 8.48043 6 8.73478 6 9V45C6 45.2652 6.10536 45.5196 6.29289 45.7071C6.48043 45.8946 6.73478 46 7 46H9C8.73478 46 8.48043 45.8946 8.29289 45.7071C8.10536 45.5196 8 45.2652 8 45Z" fill="#DFEAEF"/>
<path d="M32 54C30.22 54 28.4799 53.4722 26.9999 52.4832C25.5198 51.4943 24.3663 50.0887 23.6851 48.4442C23.0039 46.7996 22.8257 44.99 23.1729 43.2442C23.5202 41.4984 24.3774 39.8947 25.636 38.636C26.8947 37.3774 28.4984 36.5202 30.2442 36.1729C31.99 35.8257 33.7996 36.0039 35.4442 36.6851C37.0887 37.3663 38.4943 38.5198 39.4832 39.9999C40.4722 41.4799 41 43.22 41 45C40.9974 47.3861 40.0483 49.6738 38.361 51.361C36.6738 53.0483 34.3861 53.9974 32 54Z" fill="#F74E0C"/>
<path d="M34 52C32.3406 52.003 30.7128 51.5463 29.2971 50.6806C27.8814 49.8149 26.7331 48.574 25.9796 47.0956C25.2261 45.6171 24.8968 43.9588 25.0281 42.3046C25.1595 40.6504 25.7465 39.065 26.724 37.724C25.6691 38.4862 24.7922 39.4685 24.154 40.6028C23.5158 41.7371 23.1316 42.9964 23.0278 44.2938C22.9239 45.5912 23.1031 46.8956 23.5527 48.1169C24.0024 49.3383 24.7119 50.4475 25.6322 51.3678C26.5525 52.2881 27.6617 52.9976 28.883 53.4473C30.1044 53.8969 31.4088 54.076 32.7062 53.9722C34.0036 53.8684 35.2629 53.4841 36.3972 52.846C37.5315 52.2078 38.5137 51.3309 39.276 50.276C37.7447 51.3956 35.897 51.9994 34 52Z" fill="#CC2600"/>
<path d="M32 49C34.2091 49 36 47.2091 36 45C36 42.7909 34.2091 41 32 41C29.7909 41 28 42.7909 28 45C28 47.2091 29.7909 49 32 49Z" fill="#FEBC00"/>
<path d="M34 47C32.9391 47 31.9217 46.5786 31.1716 45.8284C30.4214 45.0783 30 44.0609 30 43C30.0015 42.4339 30.1243 41.8747 30.36 41.36C29.7695 41.6248 29.2521 42.0292 28.8525 42.5383C28.4528 43.0474 28.1828 43.6459 28.0657 44.2825C27.9486 44.919 27.988 45.5745 28.1803 46.1924C28.3727 46.8104 28.7123 47.3724 29.1699 47.8301C29.6276 48.2877 30.1896 48.6273 30.8075 48.8197C31.4255 49.012 32.081 49.0513 32.7175 48.9343C33.3541 48.8172 33.9526 48.5472 34.4617 48.1475C34.9708 47.7479 35.3752 47.2305 35.64 46.64C35.1253 46.8757 34.5661 46.9985 34 47Z" fill="#EDAA03"/>
<path d="M46 16H18V18H46V16Z" fill="#DFEAEF"/>
<path d="M46 20H18V22H46V20Z" fill="#DFEAEF"/>
<path d="M46 24H18V26H46V24Z" fill="#DFEAEF"/>
<path d="M46 28H32V30H46V28Z" fill="#DFEAEF"/>
<path d="M46 32H38V34H46V32Z" fill="#DFEAEF"/>
</svg>
