<svg width="48" height="53" viewBox="0 0 48 53" fill="none" xmlns="http://www.w3.org/2000/svg">
<g filter="url(#filter0_d_474_2314)">
<path fill-rule="evenodd" clip-rule="evenodd" d="M4.78909 0.683582C4.28801 1.22213 4 2.05102 4 3.12812V41.4399C4 42.517 4.28801 43.3459 4.80782 43.8657L4.94363 43.9804L26.4106 22.5135V22.0311L4.9249 0.568848L4.78909 0.683582Z" fill="url(#paint0_linear_474_2314)"/>
<path fill-rule="evenodd" clip-rule="evenodd" d="M33.5521 29.6973L26.3918 22.5346V22.0335L33.5545 14.8708L33.709 14.9669L42.1806 19.781C44.6064 21.1484 44.6064 23.401 42.1806 24.7871L33.709 29.6013C33.7067 29.6013 33.5521 29.6973 33.5521 29.6973Z" fill="url(#paint1_linear_474_2314)"/>
<path fill-rule="evenodd" clip-rule="evenodd" d="M33.7067 29.6012L26.3919 22.2839L4.78909 43.8867C5.57818 44.7343 6.90582 44.8303 8.39033 44.0014L33.7067 29.6012Z" fill="url(#paint2_linear_474_2314)"/>
<path fill-rule="evenodd" clip-rule="evenodd" d="M33.7067 14.9692L8.39033 0.587603C6.90816 -0.260023 5.57818 -0.145289 4.78909 0.702337L26.3895 22.284L33.7067 14.9692Z" fill="url(#paint3_linear_474_2314)"/>
<path opacity="0.2" fill-rule="evenodd" clip-rule="evenodd" d="M33.5521 29.4465L8.40898 43.7321C7.00407 44.5399 5.75137 44.4837 4.94355 43.7508L4.80774 43.8866L4.94355 44.0014C5.75137 44.7319 7.00407 44.7904 8.40898 43.9826L33.7254 29.6011L33.5521 29.4465Z" fill="black"/>
<path opacity="0.12" fill-rule="evenodd" clip-rule="evenodd" d="M42.1784 24.5365L33.5335 29.4466L33.688 29.6012L42.1596 24.787C43.3725 24.0939 43.9696 23.1901 43.9696 22.2839C43.8923 23.1128 43.2765 23.9019 42.1784 24.5365Z" fill="black"/>
<path opacity="0.25" fill-rule="evenodd" clip-rule="evenodd" d="M8.39033 0.838066L42.1783 20.0338C43.2765 20.6496 43.8923 21.4574 43.9883 22.2863C43.9883 21.3825 43.3912 20.4763 42.1783 19.7832L8.39033 0.587525C5.96453 -0.798649 4 0.355715 4 3.12806V3.3786C4 0.606257 5.96453 -0.529375 8.39033 0.838066Z" fill="white"/>
</g>
<defs>
<filter id="filter0_d_474_2314" x="0" y="0" width="47.9999" height="52.5752" filterUnits="userSpaceOnUse" color-interpolation-filters="sRGB">
<feFlood flood-opacity="0" result="BackgroundImageFix"/>
<feColorMatrix in="SourceAlpha" type="matrix" values="0 0 0 0 0 0 0 0 0 0 0 0 0 0 0 0 0 0 127 0" result="hardAlpha"/>
<feOffset dy="4"/>
<feGaussianBlur stdDeviation="2"/>
<feComposite in2="hardAlpha" operator="out"/>
<feColorMatrix type="matrix" values="0 0 0 0 0 0 0 0 0 0 0 0 0 0 0 0 0 0 0.25 0"/>
<feBlend mode="normal" in2="BackgroundImageFix" result="effect1_dropShadow_474_2314"/>
<feBlend mode="normal" in="SourceGraphic" in2="effect1_dropShadow_474_2314" result="shape"/>
</filter>
<linearGradient id="paint0_linear_474_2314" x1="24.4829" y1="2.7163" x2="-9.90341" y2="11.8786" gradientUnits="userSpaceOnUse">
<stop stop-color="#00A0FF"/>
<stop offset="0.007" stop-color="#00A1FF"/>
<stop offset="0.26" stop-color="#00BEFF"/>
<stop offset="0.512" stop-color="#00D2FF"/>
<stop offset="0.76" stop-color="#00DFFF"/>
<stop offset="1" stop-color="#00E3FF"/>
</linearGradient>
<linearGradient id="paint1_linear_474_2314" x1="45.3372" y1="22.2851" x2="3.41037" y2="22.2851" gradientUnits="userSpaceOnUse">
<stop stop-color="#FFE000"/>
<stop offset="0.409" stop-color="#FFBD00"/>
<stop offset="0.775" stop-color="#FFA500"/>
<stop offset="1" stop-color="#FF9C00"/>
</linearGradient>
<linearGradient id="paint2_linear_474_2314" x1="29.7291" y1="26.2646" x2="2.12362" y2="72.7264" gradientUnits="userSpaceOnUse">
<stop stop-color="#FF3A44"/>
<stop offset="1" stop-color="#C31162"/>
</linearGradient>
<linearGradient id="paint3_linear_474_2314" x1="-0.648855" y1="-12.0607" x2="11.6668" y2="8.68985" gradientUnits="userSpaceOnUse">
<stop stop-color="#32A071"/>
<stop offset="0.069" stop-color="#2DA771"/>
<stop offset="0.476" stop-color="#15CF74"/>
<stop offset="0.801" stop-color="#06E775"/>
<stop offset="1" stop-color="#00F076"/>
</linearGradient>
</defs>
</svg>
